<?xml version="1.0" encoding="utf-8"?>
<!-- Generator: Adobe Illustrator 19.1.0, SVG Export Plug-In . SVG Version: 6.00 Build 0)  -->
<svg version="1.1" id="Layer_1" xmlns="http://www.w3.org/2000/svg" xmlns:xlink="http://www.w3.org/1999/xlink" x="0px" y="0px"
	 viewBox="0 0 105 62" style="enable-background:new 0 0 105 62;" xml:space="preserve">
<style type="text/css">
	.st0{fill:#00B4CA;}
	.st1{fill:#FFD55E;}
</style>
<g>
	<g>
		<circle class="st0" cx="30.8" cy="30.7" r="30.5"/>
	</g>
	<g>
		<path class="st0" d="M77.3,16.8c0.1,0,0.2,0,0.2,0.2v0.6c0,0.1-0.1,0.2-0.2,0.2h-0.9v3.7c0,0.1,0,0.2-0.2,0.2h-0.8
			c-0.1,0-0.2-0.1-0.2-0.2v-3.7h-0.9c-0.1,0-0.2-0.1-0.2-0.2V17c0-0.1,0.1-0.2,0.2-0.2H77.3z"/>
		<path class="st0" d="M79.4,18.8h1.3V17c0-0.1,0.1-0.2,0.2-0.2h0.8c0.1,0,0.2,0.1,0.2,0.2v4.5c0,0.1,0,0.2-0.2,0.2h-0.8
			c-0.1,0-0.2-0.1-0.2-0.2v-1.8h-1.3v1.8c0,0.1,0,0.2-0.2,0.2h-0.8c-0.1,0-0.2-0.1-0.2-0.2V17c0-0.1,0.1-0.2,0.2-0.2h0.8
			c0.1,0,0.2,0.1,0.2,0.2V18.8z"/>
		<path class="st0" d="M83.1,21.8c-0.1,0-0.2-0.1-0.2-0.2V17c0-0.1,0.1-0.2,0.2-0.2h2.5c0.1,0,0.2,0,0.2,0.2v0.6
			c0,0.1-0.1,0.2-0.2,0.2h-1.5v0.9h1.4c0.1,0,0.2,0,0.2,0.2v0.5c0,0.1-0.1,0.2-0.2,0.2h-1.4v1.1h1.6c0.1,0,0.2,0,0.2,0.2v0.6
			c0,0.1-0.1,0.2-0.2,0.2L83.1,21.8L83.1,21.8z"/>
		<path class="st0" d="M77.4,24.4c0.1,0,0.2,0,0.2,0.2v0.6c0,0.1-0.1,0.2-0.2,0.2h-0.9v3.7c0,0.1,0,0.2-0.2,0.2h-0.8
			c-0.1,0-0.2-0.1-0.2-0.2v-3.7h-0.9c-0.1,0-0.2-0.1-0.2-0.2v-0.6c0-0.1,0.1-0.2,0.2-0.2H77.4z"/>
		<path class="st0" d="M78.5,29.3c-0.1,0-0.2-0.1-0.2-0.2v-4.5c0-0.1,0.1-0.2,0.2-0.2H81c0.1,0,0.2,0,0.2,0.2v0.6
			c0,0.1-0.1,0.2-0.2,0.2h-1.5v0.9h1.4c0.1,0,0.2,0,0.2,0.2V27c0,0.1-0.1,0.2-0.2,0.2h-1.4v1.1H81c0.1,0,0.2,0,0.2,0.2v0.6
			c0,0.1-0.1,0.2-0.2,0.2L78.5,29.3L78.5,29.3z"/>
		<path class="st0" d="M84.4,24.6l1.3,4.5c0,0.1,0,0.2-0.2,0.2h-0.8c-0.1,0-0.2-0.1-0.3-0.2l-0.2-0.7h-1.2l-0.2,0.7
			c0,0.1-0.1,0.2-0.3,0.2h-0.7c-0.1,0-0.2-0.1-0.2-0.2l1.3-4.5c0-0.1,0.1-0.2,0.3-0.2h0.8C84.3,24.4,84.3,24.4,84.4,24.6z
			 M83.9,27.1c-0.1-0.4-0.2-1.5-0.2-1.5c0,0.1-0.1,1.1-0.2,1.5l-0.1,0.4H84L83.9,27.1z"/>
		<path class="st0" d="M89.8,28.1c0,0.6-0.4,1.2-1.8,1.2c-1.4,0-1.8-0.6-1.8-1.2v-2.6c0-0.6,0.4-1.2,1.8-1.2c1.4,0,1.8,0.6,1.8,1.2
			v0.3c0,0.1,0,0.2-0.2,0.2h-0.7c-0.1,0-0.2-0.1-0.2-0.2v-0.1c0-0.3-0.3-0.5-0.6-0.5c-0.4,0-0.6,0.1-0.6,0.5v2.2
			c0,0.3,0.2,0.5,0.6,0.5c0.4,0,0.6-0.1,0.6-0.5v-0.2c0-0.1,0.1-0.2,0.2-0.2h0.7c0.1,0,0.2,0.1,0.2,0.2V28.1z"/>
		<path class="st0" d="M91.8,26.3h1.3v-1.7c0-0.1,0.1-0.2,0.2-0.2h0.8c0.1,0,0.2,0.1,0.2,0.2v4.5c0,0.1,0,0.2-0.2,0.2h-0.8
			c-0.1,0-0.2-0.1-0.2-0.2v-1.8h-1.3v1.8c0,0.1,0,0.2-0.2,0.2h-0.8c-0.1,0-0.2-0.1-0.2-0.2v-4.5c0-0.1,0.1-0.2,0.2-0.2h0.8
			c0.1,0,0.2,0.1,0.2,0.2V26.3z"/>
		<path class="st0" d="M95.6,29.3c-0.1,0-0.2-0.1-0.2-0.2v-4.5c0-0.1,0.1-0.2,0.2-0.2H98c0.1,0,0.2,0,0.2,0.2v0.6
			c0,0.1-0.1,0.2-0.2,0.2h-1.5v0.9h1.4c0.1,0,0.2,0,0.2,0.2V27c0,0.1-0.1,0.2-0.2,0.2h-1.4v1.1h1.6c0.1,0,0.2,0,0.2,0.2v0.6
			c0,0.1-0.1,0.2-0.2,0.2L95.6,29.3L95.6,29.3z"/>
		<path class="st0" d="M102,27.3l0.7,1.8c0,0.1,0,0.2-0.2,0.2h-0.8c-0.1,0-0.2-0.1-0.2-0.2l-0.6-1.6h-0.5v1.6c0,0.1,0,0.2-0.2,0.2
			h-0.8c-0.1,0-0.2-0.1-0.2-0.2v-4.5c0-0.1,0.1-0.2,0.2-0.2h1.6c1.4,0,1.8,0.6,1.8,1.2v0.6C102.8,26.7,102.6,27.1,102,27.3z
			 M100.4,25.3v1.2h0.6c0.4,0,0.7-0.1,0.7-0.5v-0.2c0-0.3-0.3-0.5-0.7-0.5H100.4z"/>
		<path class="st0" d="M77.4,31.9c0.1,0,0.2,0,0.2,0.2v0.6c0,0.1-0.1,0.2-0.2,0.2h-0.9v3.7c0,0.1,0,0.2-0.2,0.2h-0.8
			c-0.1,0-0.2-0.1-0.2-0.2v-3.7h-0.9c-0.1,0-0.2-0.1-0.2-0.2v-0.6c0-0.1,0.1-0.2,0.2-0.2H77.4z"/>
		<path class="st0" d="M81.1,34.8l0.7,1.8c0,0.1,0,0.2-0.2,0.2h-0.8c-0.1,0-0.2-0.1-0.2-0.2L80,35h-0.5v1.6c0,0.1,0,0.2-0.2,0.2
			h-0.8c-0.1,0-0.2-0.1-0.2-0.2v-4.5c0-0.1,0.1-0.2,0.2-0.2H80c1.4,0,1.8,0.6,1.8,1.2v0.6C81.9,34.2,81.7,34.6,81.1,34.8z
			 M79.5,32.9V34H80c0.4,0,0.7-0.1,0.7-0.5v-0.2c0-0.3-0.3-0.5-0.7-0.5L79.5,32.9L79.5,32.9z"/>
		<path class="st0" d="M85.1,32.1l1.3,4.5c0,0.1,0,0.2-0.2,0.2h-0.8c-0.1,0-0.2-0.1-0.3-0.2L85,35.9h-1.2l-0.2,0.7
			c0,0.1-0.1,0.2-0.3,0.2h-0.7c-0.1,0-0.2-0.1-0.2-0.2l1.3-4.5c0-0.1,0.1-0.2,0.3-0.2h0.8C85,31.9,85,32,85.1,32.1z M84.6,34.6
			c-0.1-0.4-0.2-1.5-0.2-1.5c0,0.1-0.1,1.1-0.2,1.5L84,35h0.7L84.6,34.6z"/>
		<path class="st0" d="M88.3,36.6c0,0.1,0,0.2-0.2,0.2h-0.8c-0.1,0-0.2-0.1-0.2-0.2v-4.5c0-0.1,0.1-0.2,0.2-0.2H88
			c0.1,0,0.2,0.1,0.2,0.2V36.6z"/>
		<path class="st0" d="M93,36.6c0,0.1,0,0.2-0.2,0.2h-0.7c-0.1,0-0.1,0-0.2-0.1l-1.2-1.9c-0.1-0.2-0.2-0.5-0.3-0.7v2.5
			c0,0.1,0,0.2-0.2,0.2h-0.7c-0.1,0-0.2-0.1-0.2-0.2v-4.5c0-0.1,0.1-0.2,0.2-0.2h0.7c0.1,0,0.2,0,0.2,0.1l1.2,2.1
			c0.1,0.1,0.2,0.4,0.3,0.5v-2.5c0-0.1,0.1-0.2,0.2-0.2h0.7c0.1,0,0.2,0.1,0.2,0.2L93,36.6L93,36.6z"/>
		<path class="st0" d="M95.2,36.6c0,0.1,0,0.2-0.2,0.2h-0.8c-0.1,0-0.2-0.1-0.2-0.2v-4.5c0-0.1,0.1-0.2,0.2-0.2H95
			c0.1,0,0.2,0.1,0.2,0.2V36.6z"/>
		<path class="st0" d="M99.9,36.6c0,0.1,0,0.2-0.2,0.2H99c-0.1,0-0.1,0-0.2-0.1l-1.2-1.9c-0.1-0.2-0.2-0.5-0.3-0.7v2.5
			c0,0.1,0,0.2-0.2,0.2h-0.7c-0.1,0-0.2-0.1-0.2-0.2v-4.5c0-0.1,0.1-0.2,0.2-0.2h0.7c0.1,0,0.1,0,0.2,0.1l1.2,2.1
			c0.1,0.1,0.2,0.4,0.3,0.5v-2.5c0-0.1,0.1-0.2,0.2-0.2h0.7c0.1,0,0.2,0.1,0.2,0.2L99.9,36.6L99.9,36.6z"/>
		<path class="st0" d="M104.3,34.1c0.1,0,0.2,0,0.2,0.2v1.3c0,0.6-0.4,1.2-1.8,1.2c-1.4,0-1.8-0.6-1.8-1.2v-2.6
			c0-0.6,0.4-1.2,1.8-1.2c1.4,0,1.8,0.6,1.8,1.2v0.3c0,0.1,0,0.2-0.2,0.2h-0.7c-0.1,0-0.2-0.1-0.2-0.2v0c0-0.3-0.3-0.5-0.6-0.5
			s-0.6,0.1-0.6,0.5v2.2c0,0.3,0.2,0.5,0.6,0.5s0.6-0.1,0.6-0.5v-0.3h-0.6c-0.1,0-0.2-0.1-0.2-0.2v-0.6c0-0.1,0.1-0.2,0.2-0.2
			L104.3,34.1L104.3,34.1z"/>
		<path class="st0" d="M75.7,42.7v1.5c0,0.1,0,0.2-0.2,0.2h-0.8c-0.1,0-0.2-0.1-0.2-0.2v-4.5c0-0.1,0.1-0.2,0.2-0.2h1.6
			c1.4,0,1.8,0.6,1.8,1.2v0.8c0,0.6-0.5,1.2-1.8,1.2L75.7,42.7L75.7,42.7z M75.7,40.4v1.3h0.6c0.4,0,0.7-0.1,0.7-0.5v-0.4
			c0-0.3-0.3-0.5-0.7-0.5H75.7L75.7,40.4z"/>
		<path class="st0" d="M78.8,40.6c0-0.6,0.5-1.2,1.9-1.2s1.9,0.6,1.9,1.2v2.6c0,0.6-0.5,1.2-1.9,1.2c-1.4,0-1.9-0.6-1.9-1.2V40.6z
			 M81.4,40.8c0-0.3-0.3-0.5-0.7-0.5S80,40.5,80,40.8V43c0,0.3,0.3,0.5,0.7,0.5c0.4,0,0.7-0.1,0.7-0.5V40.8z"/>
		<path class="st0" d="M86.4,42.4l0.7,1.8c0,0.1,0,0.2-0.2,0.2h-0.8c-0.1,0-0.2-0.1-0.2-0.2l-0.6-1.6h-0.5v1.6c0,0.1,0,0.2-0.2,0.2
			h-0.8c-0.1,0-0.2-0.1-0.2-0.2v-4.5c0-0.1,0.1-0.2,0.2-0.2h1.6c1.4,0,1.8,0.6,1.8,1.2v0.6C87.1,41.7,86.9,42.1,86.4,42.4z
			 M84.7,40.4v1.2h0.6c0.4,0,0.7-0.1,0.7-0.5v-0.2c0-0.3-0.3-0.5-0.7-0.5H84.7L84.7,40.4z"/>
		<path class="st0" d="M90.9,39.4c0.1,0,0.2,0,0.2,0.2v0.6c0,0.1-0.1,0.2-0.2,0.2H90v3.7c0,0.1,0,0.2-0.2,0.2H89
			c-0.1,0-0.2-0.1-0.2-0.2v-3.7h-0.9c-0.1,0-0.2-0.1-0.2-0.2v-0.6c0-0.1,0.1-0.2,0.2-0.2H90.9z"/>
		<path class="st0" d="M93.6,39.6l1.3,4.5c0,0.1,0,0.2-0.2,0.2H94c-0.1,0-0.2-0.1-0.3-0.2l-0.2-0.7h-1.2l-0.2,0.7
			c0,0.1-0.1,0.2-0.3,0.2h-0.7c-0.1,0-0.2-0.1-0.2-0.2l1.3-4.5c0-0.1,0.1-0.2,0.3-0.2h0.8C93.5,39.4,93.6,39.5,93.6,39.6z
			 M93.2,42.1c-0.1-0.4-0.2-1.5-0.2-1.5c0,0.1-0.1,1.1-0.2,1.5l-0.1,0.4h0.7L93.2,42.1z"/>
		<path class="st0" d="M96.8,43.4h1.4c0.1,0,0.2,0,0.2,0.2v0.6c0,0.1-0.1,0.2-0.2,0.2h-2.4c-0.1,0-0.2-0.1-0.2-0.2v-4.5
			c0-0.1,0.1-0.2,0.2-0.2h0.8c0.1,0,0.2,0.1,0.2,0.2L96.8,43.4L96.8,43.4z"/>
	</g>
	<g>
		<path class="st0" d="M68.3,50.4c-0.2,0-0.3-0.1-0.3-0.3V11.3c0-0.2,0.1-0.3,0.3-0.3s0.3,0.1,0.3,0.3V50
			C68.6,50.2,68.5,50.4,68.3,50.4z"/>
	</g>
	<g>
		<g>
			<g>
				<path class="st1" d="M53.5,28.4c-0.2-1.6-2.2-2.8-4.4-2.2c-2.3,0.6-3.3-0.1-3.6-0.9c-0.3-0.8,0.2-2.6,0.5-3.2
					c0.2-0.6,0.4-1.1,0-1c-0.4,0.1-1.2,0.2-1.8,0.3c-0.5,0.1-0.6,1.5-0.9,3.6c-0.2,1.2-0.4,1.7-0.7,2.2c-0.7,1.1-1.6,1.2-2.6,1
					c-1-0.2-1.6-1.3-1.6-1.3c0.6-0.2,1.8-0.8,2.4-1.9c0.6-1.1,0.6-2.5-0.4-3.2s-2.4-0.1-3,0.3c-0.3,0.2-0.9,0.8-0.9,0.8
					c0.4-0.9,0.8-2.1,1.1-4.1c0.5-3.2-0.8-4.6-2.2-4.7c-0.9,0-2.2,0.9-1.8,4.2c0.2,1.8,0.5,4.8,0.5,7c0,0.7,0,1.3-0.1,2
					c-0.1,0.7-0.6,1.2-1.1,1.7c-1,1-2.1,0.6-1.9-0.9c0.2-1.4,1.2-4,1.5-4.8c0-0.1,0-0.2-0.1-0.2c-1.1-0.2-1.8,0.7-3.7,1.7
					c0.2-1.1-0.1-2-1-2.6c-1.1-0.7-2.6,0.1-3,1.2c-0.6,1.5,0.2,2.6,0.8,3c0.4,0.3,1,0.4,1.6,0.3c-0.4,1-1,1.9-1.6,2.3
					c-1,0.8-2.6,0.2-2.9-1.1c-0.2-1.1,0-2.5,0.1-3c0-0.1,0-0.2-0.1-0.2c-0.4-0.3-1.2-0.4-1.7-0.4c-0.5,0-0.6,0.4-0.7,0.8
					c-0.1,0.6-0.3,1.3-1,2c-0.9,0.9-2.4,1.5-4.1,1.8c0,0,0-0.2,0-0.3c0.1-0.1,0.1-0.1,0.2-0.2c1.4-1.5,2.5-3,3.5-5.6
					c1.1-2.8,1-4.8-0.6-6.4c-1.1-1.1-2.6-2.2-3.5,1c-0.9,3.2-1.1,6.8-1,10.3c-0.1,0.1-0.4,0.3-0.6,0.4c-1.3,0.9-2.9,1.5-4.3,1.6
					c-0.5,0-0.5,0.2-0.3,0.5c0.1,0.2,0.7,1.4,0.9,1.7c0.2,0.3,0.4,0.2,0.7,0.1c1.1-0.4,2.5-1.2,3.7-2.2c0.2,4.9,0.6,12.7,3.2,18.5
					c2.4,5.2,7.2,5.2,8.4,2.2c1.3-3.2-0.2-9.1-3-14.1c-1.8-3.3-4.1-5.3-5.7-6.4c1-0.1,2-0.4,2.7-0.7c0.5-0.3,1-0.7,1.3-1
					c0.4-0.4,0.5,0.1,0.8,1.1c0.7,1.8,2.4,2.2,3.8,1.5c1.5-0.7,2.2-2.8,2.7-4.4c0.1,0,0.9-0.4,1.3-0.6c0.7-0.4,1-0.7,1-0.7
					c-0.8,1.6-1.5,5,0.1,5.7c1.1,0.5,2.1-0.2,2.5-0.5c0.2-0.1,0.4-0.3,0.7-0.6c0,0.2,0,0.5,0,0.6c0,1,1.1,0.5,1.5,0.2
					c0,0,0.1-0.1,0.1-0.2c-0.1-0.4,0-0.9,0.3-2c0.1-0.3,0.2-0.6,0.3-0.9c0.6-0.1,1.6,0,2.1,0.6c0.7,0.8,1.7,1.5,3.3,1.4
					c1.3-0.1,2.1-0.9,2.5-1.5c0.4-0.6,0.8-1.6,0.7-1.6c0.7,1.7,2.6,1.4,4.3,1.3c1.6-0.1,2,0.9,1.9,1.5c-0.3,1-1.2,1.4-5,2
					c-4.5,0.7-8.8,0.7-12.5,0.8c-2,0-6.8,0.5-8.3,1c-1.8,0.6-2,0.8-1.3,1.9c1,1.6,1.9,3.5,2.6,5.5c0.4,1,1.6-0.4,2.5-1.6
					c1.9-2.7,4.4-4.4,10.3-5.1c4.5-0.5,9.1-1.1,12-2C52.8,31.2,53.6,30,53.5,28.4z M14.9,25c0.3-6.3,1.5-6.5,2.3-5
					c0.7,1.2-0.4,3.8-0.8,4.7c-0.3,0.7-0.8,1.4-1.6,2.2C14.9,26.2,14.9,25.6,14.9,25z M20.2,36.8c1.7,3.4,1.8,6.6,0.7,8
					c-1.3,1.6-3.5-0.9-4.4-4.9c-0.4-1.9-1.2-5.2-1.5-9C16.2,31.8,18.6,33.6,20.2,36.8z M26,24.5c-0.1-0.6,0.4-1.3,1.1-1
					c0.5,0.2,0.6,1,0.4,1.8C26.4,25.6,26.1,25,26,24.5z M35.2,17.9c0.4-1.3,1.1-0.5,1.1,1c0,0.9-0.5,3.4-1.2,5.4
					C35.1,23,34.9,19,35.2,17.9z M36.1,26.5c0.5-1.2,1.1-2.1,1.4-2.5c0.6-0.8,1.4-0.9,1.8-0.5c0.3,0.3,0.3,1-0.7,2
					C37.8,26.3,36.6,26.5,36.1,26.5z"/>
			</g>
			<g>
				<path class="st1" d="M22.7,23.9c0.8-0.3,0.9-1.1,0.7-1.8c-0.2-0.7-1.1-1-1.8-0.7c-0.8,0.3-1.2,1-0.9,1.7
					C20.9,23.7,21.7,24.2,22.7,23.9z"/>
			</g>
		</g>
		<g>
			<path class="st1" d="M48.8,16.9c-0.6-0.5-1.5-0.9-2.3-0.9c0.2-0.4,0.5-0.7,0.8-1c0.8-0.5,0-1.7-0.7-1.2c-0.7,0.4-1.3,1.1-1.5,1.9
				c0,0,0,0,0,0c-0.3-0.3-0.6-0.7-0.7-1.1c-0.2-0.9-1.6-0.5-1.4,0.4c0.2,0.7,0.7,1.5,1.4,2c-0.4,0.2-0.9,0.3-1.3,0.3
				c-0.9,0-0.9,1.4,0,1.4c0.7,0,1.6-0.2,2.3-0.7c0.1,0.5,0,1-0.2,1.4c-0.3,0.9,1,1.2,1.4,0.4c0.3-0.7,0.3-1.6,0.1-2.3
				c0.4,0.1,0.8,0.2,1.1,0.5C48.5,18.5,49.5,17.5,48.8,16.9z"/>
		</g>
	</g>
</g>
</svg>
