<?xml version="1.0" encoding="utf-8"?>
<!-- Generator: Adobe Illustrator 19.1.0, SVG Export Plug-In . SVG Version: 6.00 Build 0)  -->
<svg version="1.1" id="Layer_1" xmlns="http://www.w3.org/2000/svg" xmlns:xlink="http://www.w3.org/1999/xlink" x="0px" y="0px"
	 viewBox="0 0 226 103" style="enable-background:new 0 0 226 103;" xml:space="preserve">
<style type="text/css">
	.st0{fill:#00B4CA;}
	.st1{fill:#01B4CA;}
	.st2{fill:#FD8B81;}
</style>
<g>
	<g>
		<path class="st0" d="M156.3,16.1c0.4,0,0.6,0.1,0.6,0.5V18c0,0.4-0.1,0.5-0.6,0.5h-2.4v9.6c0,0.4-0.1,0.6-0.5,0.6h-2
			c-0.4,0-0.5-0.1-0.5-0.6v-9.6h-2.4c-0.4,0-0.6-0.1-0.6-0.5v-1.4c0-0.4,0.1-0.5,0.6-0.5C148.5,16.1,156.3,16.1,156.3,16.1z"/>
		<path class="st0" d="M161.6,21h3.4v-4.4c0-0.4,0.1-0.6,0.5-0.6h2c0.4,0,0.5,0.1,0.5,0.6v11.5c0,0.4-0.1,0.6-0.5,0.6h-2
			c-0.4,0-0.5-0.1-0.5-0.6v-4.6h-3.4v4.6c0,0.4-0.1,0.6-0.5,0.6h-2c-0.4,0-0.5-0.1-0.5-0.6V16.5c0-0.4,0.1-0.6,0.5-0.6h2
			c0.4,0,0.5,0.1,0.5,0.6V21z"/>
		<path class="st0" d="M171.2,28.7c-0.4,0-0.5-0.1-0.5-0.6V16.5c0-0.4,0.1-0.6,0.5-0.6h6.4c0.4,0,0.6,0.1,0.6,0.5v1.4
			c0,0.4-0.1,0.5-0.6,0.5h-3.8v2.4h3.5c0.4,0,0.6,0.1,0.6,0.5v1.3c0,0.4-0.1,0.5-0.6,0.5h-3.5v3.2h4c0.4,0,0.6,0.1,0.6,0.5v1.4
			c0,0.4-0.1,0.5-0.6,0.5H171.2L171.2,28.7z"/>
		<path class="st0" d="M156.5,35.3c0.4,0,0.6,0.1,0.6,0.5v1.4c0,0.4-0.1,0.5-0.6,0.5h-2.4v9.6c0,0.4-0.1,0.6-0.5,0.6h-2
			c-0.4,0-0.5-0.1-0.5-0.6v-9.6h-2.4c-0.4,0-0.6-0.1-0.6-0.5v-1.4c0-0.4,0.1-0.5,0.6-0.5H156.5z"/>
		<path class="st0" d="M159.2,47.9c-0.4,0-0.5-0.1-0.5-0.6V35.8c0-0.4,0.1-0.6,0.5-0.6h6.4c0.4,0,0.6,0.1,0.6,0.5v1.4
			c0,0.4-0.1,0.5-0.6,0.5h-3.8V40h3.5c0.4,0,0.6,0.1,0.6,0.5v1.3c0,0.4-0.1,0.5-0.6,0.5h-3.5v3.2h4c0.4,0,0.6,0.1,0.6,0.5v1.4
			c0,0.4-0.1,0.5-0.6,0.5H159.2L159.2,47.9z"/>
		<path class="st0" d="M174.3,35.9l3.4,11.5c0.1,0.4,0,0.6-0.4,0.6h-2c-0.4,0-0.6-0.2-0.6-0.6l-0.5-1.8H171l-0.5,1.8
			c-0.1,0.4-0.2,0.6-0.6,0.6H168c-0.4,0-0.5-0.2-0.4-0.6l3.4-11.5c0.1-0.4,0.2-0.6,0.7-0.6h2C173.9,35.3,174.2,35.5,174.3,35.9
			 M173.1,42.1c-0.2-1.1-0.6-3.7-0.6-3.8c0,0.2-0.4,2.8-0.6,3.8l-0.2,1h1.8L173.1,42.1z"/>
		<path class="st0" d="M188.1,44.9c0,1.6-1.1,3.1-4.6,3.1s-4.6-1.6-4.6-3.1v-6.6c0-1.6,1.1-3.1,4.6-3.1c3.5,0,4.6,1.6,4.6,3.1v0.8
			c0,0.4-0.1,0.6-0.5,0.6h-1.9c-0.4,0-0.5-0.1-0.5-0.6v-0.4c0-0.8-0.6-1.2-1.6-1.2c-1,0-1.6,0.4-1.6,1.2v5.5c0,0.8,0.6,1.2,1.6,1.2
			c1,0,1.6-0.4,1.6-1.2v-0.6c0-0.4,0.1-0.6,0.5-0.6h1.9c0.4,0,0.5,0.1,0.5,0.6V44.9z"/>
		<path class="st0" d="M193.4,40.2h3.4v-4.4c0-0.4,0.1-0.6,0.5-0.6h2c0.4,0,0.5,0.1,0.5,0.6v11.5c0,0.4-0.1,0.6-0.5,0.6h-2
			c-0.4,0-0.5-0.1-0.5-0.6v-4.6h-3.4v4.6c0,0.4-0.1,0.6-0.5,0.6h-2c-0.4,0-0.5-0.1-0.5-0.6V35.8c0-0.4,0.1-0.6,0.5-0.6h2
			c0.4,0,0.5,0.1,0.5,0.6V40.2z"/>
		<path class="st0" d="M202.9,47.9c-0.4,0-0.5-0.1-0.5-0.6V35.8c0-0.4,0.1-0.6,0.5-0.6h6.4c0.4,0,0.6,0.1,0.6,0.5v1.4
			c0,0.4-0.1,0.5-0.6,0.5h-3.8V40h3.5c0.4,0,0.6,0.1,0.6,0.5v1.3c0,0.4-0.1,0.5-0.6,0.5h-3.5v3.2h4c0.4,0,0.6,0.1,0.6,0.5v1.4
			c0,0.4-0.1,0.5-0.6,0.5H202.9L202.9,47.9z"/>
		<path class="st0" d="M219.4,42.8l1.8,4.6c0.1,0.4-0.1,0.6-0.5,0.6h-2c-0.4,0-0.5-0.2-0.5-0.6l-1.7-4.1h-1.4v4.1
			c0,0.4-0.1,0.6-0.5,0.6h-2c-0.4,0-0.5-0.1-0.5-0.6V35.9c0-0.4,0.1-0.6,0.5-0.6h4c3.5,0,4.7,1.6,4.7,3.1V40
			C221.4,41.2,220.9,42.2,219.4,42.8 M215.2,37.8v3h1.4c1,0,1.7-0.4,1.7-1.2v-0.5c0-0.8-0.8-1.2-1.7-1.2h-1.4V37.8z"/>
		<path class="st0" d="M156.5,54.5c0.4,0,0.6,0.1,0.6,0.5v1.4c0,0.4-0.1,0.5-0.6,0.5h-2.4v9.6c0,0.4-0.1,0.6-0.5,0.6h-2
			c-0.4,0-0.5-0.1-0.5-0.6v-9.6h-2.4c-0.4,0-0.6-0.1-0.6-0.5V55c0-0.4,0.1-0.5,0.6-0.5C148.7,54.5,156.5,54.5,156.5,54.5z"/>
		<path class="st0" d="M166,62l1.8,4.6c0.1,0.4-0.1,0.6-0.5,0.6h-2c-0.4,0-0.5-0.2-0.5-0.6l-1.7-4.1h-1.4v4.1c0,0.4-0.1,0.6-0.5,0.6
			h-2c-0.4,0-0.5-0.1-0.5-0.6V55.1c0-0.4,0.1-0.6,0.5-0.6h4c3.5,0,4.7,1.6,4.7,3.1v1.6C167.9,60.4,167.4,61.4,166,62 M161.7,57v3
			h1.4c1,0,1.7-0.4,1.7-1.2v-0.5c0-0.8-0.8-1.2-1.7-1.2h-1.4V57z"/>
		<path class="st0" d="M176.1,55.1l3.4,11.5c0.1,0.4,0,0.6-0.4,0.6h-2c-0.4,0-0.6-0.2-0.6-0.6l-0.5-1.8h-3.1l-0.5,1.8
			c-0.1,0.4-0.2,0.6-0.6,0.6h-1.9c-0.4,0-0.5-0.2-0.4-0.6l3.4-11.5c0.1-0.4,0.2-0.6,0.7-0.6h2C175.8,54.5,176,54.7,176.1,55.1
			 M174.9,61.4c-0.2-1.1-0.6-3.7-0.6-3.8c0,0.2-0.4,2.8-0.6,3.8l-0.2,1h1.8L174.9,61.4z"/>
		<path class="st0" d="M184.3,66.6c0,0.4-0.1,0.6-0.5,0.6h-2c-0.4,0-0.5-0.1-0.5-0.6V55.1c0-0.4,0.1-0.6,0.5-0.6h2
			c0.4,0,0.5,0.1,0.5,0.6V66.6z"/>
		<path class="st0" d="M196.3,66.6c0,0.4-0.1,0.6-0.5,0.6h-1.7c-0.2,0-0.4-0.1-0.5-0.2l-3-4.9c-0.4-0.5-0.6-1.2-0.8-1.7v6.4
			c0,0.4-0.1,0.6-0.5,0.6h-1.8c-0.4,0-0.5-0.1-0.5-0.6V55.2c0-0.4,0.1-0.6,0.5-0.6h1.8c0.2,0,0.4,0.1,0.5,0.2l3.1,5.3
			c0.2,0.4,0.5,1,0.6,1.4v-6.4c0-0.4,0.1-0.6,0.5-0.6h1.8c0.4,0,0.5,0.1,0.5,0.6V66.6L196.3,66.6z"/>
		<path class="st0" d="M202,66.6c0,0.4-0.1,0.6-0.5,0.6h-2c-0.4,0-0.5-0.1-0.5-0.6V55.1c0-0.4,0.1-0.6,0.5-0.6h2
			c0.4,0,0.5,0.1,0.5,0.6V66.6z"/>
		<path class="st0" d="M214,66.6c0,0.4-0.1,0.6-0.5,0.6h-1.7c-0.2,0-0.4-0.1-0.5-0.2l-3-4.9c-0.4-0.5-0.6-1.2-0.8-1.7v6.4
			c0,0.4-0.1,0.6-0.5,0.6h-1.8c-0.4,0-0.5-0.1-0.5-0.6V55.2c0-0.4,0.1-0.6,0.5-0.6h1.8c0.2,0,0.4,0.1,0.5,0.2l3.1,5.3
			c0.2,0.4,0.5,1,0.6,1.4v-6.4c0-0.4,0.1-0.6,0.5-0.6h1.8c0.4,0,0.5,0.1,0.5,0.6L214,66.6L214,66.6z"/>
		<path class="st0" d="M225.1,60.4c0.4,0,0.6,0.1,0.6,0.5v3.2c0,1.6-1.1,3.1-4.6,3.1c-3.5,0-4.6-1.6-4.6-3.1v-6.6
			c0-1.6,1.1-3.1,4.6-3.1c3.5,0,4.6,1.6,4.6,3.1v0.7c0,0.4-0.1,0.6-0.5,0.6h-1.9c-0.4,0-0.5-0.1-0.5-0.6v-0.1c0-0.8-0.6-1.2-1.6-1.2
			s-1.6,0.4-1.6,1.2v5.5c0,0.8,0.6,1.2,1.6,1.2s1.6-0.4,1.6-1.2v-0.8h-1.6c-0.4,0-0.6-0.1-0.6-0.5v-1.4c0-0.4,0.1-0.5,0.6-0.5
			L225.1,60.4L225.1,60.4z"/>
		<path class="st0" d="M152.1,82.1v3.7c0,0.4-0.1,0.6-0.5,0.6h-2c-0.4,0-0.5-0.1-0.5-0.6V74.3c0-0.4,0.1-0.6,0.5-0.6h4
			c3.5,0,4.7,1.6,4.7,3.1v2c0,1.6-1.2,3.1-4.7,3.1h-1.4V82.1z M152.1,76.3v3.2h1.4c1,0,1.7-0.4,1.7-1.2v-1c0-0.8-0.8-1.2-1.7-1.2
			h-1.4V76.3z"/>
		<path class="st0" d="M160.1,76.8c0-1.6,1.2-3.1,4.7-3.1c3.5,0,4.8,1.6,4.8,3.1v6.6c0,1.6-1.3,3.1-4.8,3.1c-3.5,0-4.7-1.6-4.7-3.1
			V76.8z M166.6,77.3c0-0.8-0.8-1.2-1.7-1.2c-1,0-1.7,0.4-1.7,1.2v5.5c0,0.8,0.7,1.2,1.7,1.2c1,0,1.7-0.4,1.7-1.2V77.3z"/>
		<path class="st0" d="M179.4,81.3l1.8,4.6c0.1,0.4-0.1,0.6-0.5,0.6h-2c-0.4,0-0.5-0.2-0.5-0.6l-1.7-4.1h-1.4v4.1
			c0,0.4-0.1,0.6-0.5,0.6h-2c-0.4,0-0.5-0.1-0.5-0.6V74.3c0-0.4,0.1-0.6,0.5-0.6h4c3.5,0,4.7,1.6,4.7,3.1v1.6
			C181.4,79.7,180.8,80.7,179.4,81.3 M175.1,76.3v3h1.4c1,0,1.7-0.4,1.7-1.2v-0.5c0-0.8-0.8-1.2-1.7-1.2h-1.4V76.3z"/>
		<path class="st0" d="M191,73.8c0.4,0,0.6,0.1,0.6,0.5v1.4c0,0.4-0.1,0.5-0.6,0.5h-2.4v9.6c0,0.4-0.1,0.6-0.5,0.6h-2
			c-0.4,0-0.5-0.1-0.5-0.6v-9.6h-2.4c-0.4,0-0.6-0.1-0.6-0.5v-1.4c0-0.4,0.1-0.5,0.6-0.5H191z"/>
		<path class="st0" d="M197.9,74.3l3.4,11.5c0.1,0.4,0,0.6-0.4,0.6h-2c-0.4,0-0.6-0.2-0.6-0.6l-0.5-1.8h-3.1l-0.5,1.8
			c-0.1,0.4-0.2,0.6-0.6,0.6h-1.9c-0.4,0-0.5-0.2-0.4-0.6l3.4-11.5c0.1-0.4,0.2-0.6,0.7-0.6h2C197.7,73.8,197.8,73.9,197.9,74.3
			 M196.9,80.7c-0.2-1.1-0.6-3.7-0.6-3.8c0,0.2-0.4,2.8-0.6,3.8l-0.2,1h1.8L196.9,80.7z"/>
		<path class="st0" d="M206.1,83.9h3.6c0.4,0,0.6,0.1,0.6,0.5v1.4c0,0.4-0.1,0.5-0.6,0.5h-6.2c-0.4,0-0.5-0.2-0.5-0.6V74.2
			c0-0.4,0.1-0.6,0.5-0.6h2c0.4,0,0.5,0.1,0.5,0.6v9.7H206.1z"/>
		<path class="st0" d="M133.2,101.8c-0.5,0-0.8-0.4-0.8-0.8V1.8c0-0.5,0.4-0.8,0.8-0.8s0.8,0.4,0.8,0.8v99.1
			C134.1,101.3,133.7,101.8,133.2,101.8"/>
	</g>
	<g>
		<path class="st1" d="M118.3,39c-0.4-4.2-5.6-7.3-11.5-5.8c-5.9,1.5-8.5-0.3-9.3-2.4s0.6-6.8,1.2-8.2s1.1-2.9,0.1-2.6
			c-1,0.4-3.2,0.6-4.6,0.8c-1.4,0.2-1.5,3.9-2.4,9.4c-0.5,3-1.1,4.3-1.8,5.7c-1.7,2.9-4.3,3.2-6.9,2.6C80.5,38,78.9,35,78.9,35
			c1.6-0.6,4.6-2.2,6.2-4.9c1.6-2.9,1.6-6.5-1.2-8.3c-2.8-1.9-6.2-0.2-7.7,0.8c-1,0.7-2.5,2.3-2.5,2.3c0.9-2.4,2-5.5,2.9-10.8
			c1.3-8.5-2.3-12.2-5.7-12.3c-2.4-0.1-5.9,2.3-4.7,11c0.6,4.6,1.3,12.4,1.3,18.3c0,1.9,0,3.3-0.3,5.3c-0.2,1.7-1.6,3.1-3,4.5
			c-2.5,2.5-5.5,1.5-5-2.4c0.5-3.6,3.1-10.5,4-12.5c0.1-0.3,0.1-0.6-0.2-0.7c-2.8-0.5-4.6,1.8-9.6,4.5c0.5-3-0.3-5.3-2.6-6.8
			c-2.8-1.7-6.9,0.4-7.9,3.2C41.4,30.3,43.4,33,45,34c1.1,0.7,2.7,1,4.3,0.9c-1.1,2.5-2.6,4.9-4.1,6.1c-2.6,2.2-6.9,0.6-7.5-2.8
			c-0.5-2.9-0.1-6.6,0.2-7.7c0.1-0.2,0-0.4-0.2-0.6c-1.1-0.8-3-1.1-4.5-1C32,29,31.5,30,31.3,31.1c-0.4,1.6-0.8,3.5-2.7,5.3
			c-2.4,2.3-6.2,3.8-10.8,4.7c0,0,0-0.4-0.1-0.7c0.2-0.2,0.3-0.3,0.5-0.5c3.6-3.8,6.5-7.8,9.2-14.7c2.8-7.3,2.5-12.6-1.7-16.7
			c-2.9-2.8-6.7-5.7-9,2.7S13.8,29,14.2,38c-0.2,0.3-0.9,0.8-1.4,1.2c-3.3,2.3-7.7,3.9-11.3,4.3c-1.2,0.1-1.4,0.4-0.9,1.3
			c0.4,0.6,1.9,3.6,2.3,4.5c0.5,0.9,1.1,0.4,1.7,0.2c2.9-1,6.4-3.1,9.7-5.8c0.5,12.8,1.5,33.2,8.4,48.3c6.2,13.5,18.7,13.5,22,5.7
			c3.5-8.3-0.5-23.8-7.7-36.8C32.2,52.3,26.3,47,22.3,44.2c2.7-0.3,5.1-1,7.1-1.9c1.4-0.7,2.5-1.7,3.5-2.6c0.9-0.9,1.2,0.2,2.2,2.8
			c1.7,4.7,6.2,5.6,10,3.8c3.8-1.7,5.6-7.3,7-11.5c0.3-0.1,2.3-0.9,3.3-1.5c1.8-1,2.6-1.8,2.6-1.8c-2.2,4.1-3.9,13.1,0.2,14.9
			c2.8,1.3,5.4-0.6,6.5-1.3c0.5-0.3,1.1-0.9,1.8-1.5c-0.1,0.6-0.1,1.2-0.1,1.7c0,2.6,3,1.4,3.9,0.5c0.1-0.1,0.2-0.2,0.2-0.6
			c-0.2-1.1,0-2.3,0.8-5.1c0.2-0.9,0.5-1.7,0.7-2.5c1.7-0.2,4.1,0.1,5.5,1.6c2,2.2,4.4,3.9,8.6,3.6c3.4-0.3,5.6-2.3,6.6-3.9
			c1-1.6,2-4.2,1.9-4.2c1.8,4.3,6.8,3.7,11.1,3.3c4.3-0.4,5.3,2.3,4.8,4c-0.8,2.6-3.2,3.7-13.2,5.3c-11.6,1.5-23,1.5-32.6,1.8
			c-5.2,0.1-17.6,1.4-21.8,2.7c-4.7,1.5-5.2,2.1-3.5,5c2.5,4.2,4.8,9.1,6.9,14.5c1,2.7,4.1-1.1,6.4-4.3c5-7,11.6-11.4,27-13.2
			c11.6-1.3,23.7-2.8,31.3-5.3C116.4,46.5,118.7,43.2,118.3,39 M17.7,30.3c0.9-16.6,3.8-16.9,6.1-13.1c1.9,3.1-0.9,9.9-2.1,12.1
			c-0.9,1.7-2,3.6-4.1,5.7C17.6,33.5,17.6,31.9,17.7,30.3 M31.6,61.2c4.5,8.9,4.8,17.3,1.9,20.9c-3.3,4.2-9.2-2.3-11.4-12.7
			c-1-4.8-3.1-13.4-4-23.6C20.9,47.9,27.4,52.8,31.6,61.2 M46.6,28.9c-0.2-1.6,1.2-3.4,2.8-2.6c1.3,0.6,1.4,2.6,1,4.8
			C47.7,31.9,46.8,30.4,46.6,28.9 M70.6,11.7c0.9-3.4,3-1.4,3,2.5c0,2.5-1.4,8.8-3,14C70.4,25.1,69.8,14.6,70.6,11.7 M73,34.3
			c1.3-3.1,2.8-5.4,3.6-6.5c1.6-2,3.8-2.4,4.7-1.4c0.7,0.7,0.7,2.7-2,5.3C77.3,33.7,74.3,34.2,73,34.3"/>
		<path class="st2" d="M105.3,8.5c-1.6-1.3-3.9-2.3-6.1-2.4c0.5-1,1.2-1.9,2.1-2.5c2-1.3,0.1-4.5-1.9-3.2c-1.7,1.1-3.3,3-4,5l0,0
			c-0.8-0.8-1.5-1.7-1.8-2.9c-0.6-2.3-4.2-1.3-3.6,1c0.5,2,1.9,4,3.6,5.3c-1.1,0.5-2.4,0.8-3.4,0.7c-2.4-0.1-2.4,3.6,0,3.7
			c1.9,0.1,4.3-0.5,6.1-1.7c0.2,1.2-0.1,2.6-0.4,3.5c-0.8,2.2,2.7,3.2,3.6,1c0.7-1.7,0.8-4.1,0.3-6.1c1,0.2,2.1,0.6,2.9,1.2
			C104.5,12.6,107.1,10,105.3,8.5"/>
	</g>
</g>
</svg>
